<svg width="15" height="16" viewBox="0 0 15 16" fill="none" xmlns="http://www.w3.org/2000/svg">
<path d="M9.18305 9.38446C9.18305 9.38446 9.37873 9.18878 9.7701 8.79741C10.1615 8.40604 10.3572 7.65976 10.3572 6.55857C10.3572 5.45738 9.96579 4.51541 9.18305 3.73268C8.40031 2.94994 7.45835 2.55857 6.35716 2.55857C5.25597 2.55857 4.314 2.94994 3.53126 3.73268C2.74853 4.51541 2.35716 5.45738 2.35716 6.55857C2.35716 7.65976 2.74853 8.60172 3.53126 9.38446C4.314 10.1672 5.25597 10.5586 6.35716 10.5586C7.45835 10.5586 8.40031 10.1672 9.18305 9.38446ZM14.9286 13.9871C14.9286 14.2967 14.8155 14.5645 14.5893 14.7907C14.3631 15.0169 14.0953 15.13 13.7857 15.13C13.4643 15.13 13.1964 15.0169 12.9822 14.7907L9.91966 11.7371C8.85418 12.4752 7.66668 12.8443 6.35716 12.8443C5.50597 12.8443 4.69198 12.6791 3.91519 12.3487C3.13841 12.0184 2.46876 11.572 1.90626 11.0095C1.34376 10.447 0.897335 9.77732 0.566977 9.00053C0.23662 8.22375 0.0714417 7.40976 0.0714417 6.55857C0.0714417 5.70738 0.23662 4.89339 0.566977 4.1166C0.897335 3.33982 1.34376 2.67018 1.90626 2.10768C2.46876 1.54518 3.13841 1.09875 3.91519 0.76839C4.69198 0.438032 5.50597 0.272854 6.35716 0.272854C7.20835 0.272854 8.02234 0.438032 8.79912 0.76839C9.57591 1.09875 10.2455 1.54518 10.808 2.10768C11.3705 2.67018 11.817 3.33982 12.1473 4.1166C12.4777 4.89339 12.6429 5.70738 12.6429 6.55857C12.6429 7.86809 12.2738 9.05559 11.5357 10.1211L14.5982 13.1836C14.8185 13.4038 14.9286 13.6717 14.9286 13.9871Z" fill="#555555"/>
</svg>
