<svg width="15" height="14" viewBox="0 0 15 14" fill="none" xmlns="http://www.w3.org/2000/svg">
<path d="M9.11607 8.74607C9.11607 8.74607 9.22767 8.63446 9.45089 8.41125C9.6741 8.18803 9.78571 7.76095 9.78571 7.13C9.78571 6.49904 9.5625 5.96035 9.11607 5.51393C8.66964 5.0675 8.13095 4.84428 7.5 4.84428C6.86904 4.84428 6.33035 5.0675 5.88392 5.51393C5.4375 5.96035 5.21428 6.49904 5.21428 7.13C5.21428 7.76095 5.4375 8.29964 5.88392 8.74607C6.33035 9.1925 6.86904 9.41571 7.5 9.41571C8.13095 9.41571 8.66964 9.1925 9.11607 8.74607ZM14.3571 6.15678V8.13893C14.3571 8.21035 14.3333 8.27881 14.2857 8.34428C14.2381 8.40976 14.1786 8.44845 14.1071 8.46035L12.4554 8.71035C12.3423 9.03178 12.2262 9.30262 12.1071 9.52285C12.3155 9.82047 12.6339 10.2312 13.0625 10.755C13.122 10.8264 13.1518 10.9008 13.1518 10.9782C13.1518 11.0556 13.125 11.124 13.0714 11.1836C12.9107 11.4038 12.6161 11.7252 12.1875 12.1479C11.7589 12.5705 11.4792 12.7818 11.3482 12.7818C11.2768 12.7818 11.1994 12.755 11.1161 12.7014L9.88392 11.7371C9.62202 11.874 9.35119 11.9871 9.07142 12.0764C8.97619 12.886 8.88988 13.4395 8.8125 13.7371C8.77083 13.9038 8.66369 13.9871 8.49107 13.9871H6.50892C6.42559 13.9871 6.35267 13.9618 6.29017 13.9112C6.22767 13.8607 6.19345 13.7967 6.1875 13.7193L5.9375 12.0764C5.64583 11.9812 5.37797 11.8711 5.13392 11.7461L3.875 12.7014C3.81547 12.755 3.74107 12.7818 3.65178 12.7818C3.56845 12.7818 3.49404 12.749 3.42857 12.6836C2.67857 12.005 2.1875 11.505 1.95535 11.1836C1.91369 11.124 1.89285 11.0556 1.89285 10.9782C1.89285 10.9068 1.91666 10.8383 1.96428 10.7729C2.05357 10.6479 2.20535 10.4499 2.41964 10.1791C2.63392 9.90827 2.79464 9.69845 2.90178 9.54964C2.74107 9.25202 2.61904 8.95738 2.53571 8.66571L0.901781 8.42464C0.8244 8.41274 0.7619 8.37553 0.714281 8.31303C0.666662 8.25053 0.642853 8.18059 0.642853 8.10321V6.12107C0.642853 6.04964 0.666662 5.98119 0.714281 5.91571C0.7619 5.85024 0.818448 5.81155 0.883924 5.79964L2.54464 5.54964C2.62797 5.27583 2.74404 5.00202 2.89285 4.72821C2.65476 4.38893 2.33631 3.97821 1.9375 3.49607C1.87797 3.42464 1.84821 3.35321 1.84821 3.28178C1.84821 3.22226 1.875 3.15381 1.92857 3.07643C2.08333 2.86214 2.37648 2.5422 2.80803 2.1166C3.23958 1.69101 3.52083 1.47821 3.65178 1.47821C3.72916 1.47821 3.80654 1.50797 3.88392 1.5675L5.11607 2.52285C5.37797 2.38595 5.64881 2.27285 5.92857 2.18357C6.02381 1.37404 6.11012 0.820474 6.1875 0.522855C6.22916 0.356188 6.33631 0.272854 6.50892 0.272854H8.49107C8.5744 0.272854 8.64732 0.298152 8.70982 0.348747C8.77232 0.399343 8.80654 0.46333 8.8125 0.540711L9.0625 2.18357C9.35416 2.27881 9.62202 2.38893 9.86607 2.51393L11.1339 1.55857C11.1875 1.505 11.2589 1.47821 11.3482 1.47821C11.4256 1.47821 11.5 1.50797 11.5714 1.5675C12.3393 2.27583 12.8304 2.78178 13.0446 3.08535C13.0863 3.13297 13.1071 3.19845 13.1071 3.28178C13.1071 3.35321 13.0833 3.42166 13.0357 3.48714C12.9464 3.61214 12.7946 3.81006 12.5804 4.08089C12.3661 4.35172 12.2054 4.56155 12.0982 4.71035C12.253 5.00797 12.375 5.29964 12.4643 5.58535L14.0982 5.83535C14.1756 5.84726 14.2381 5.88446 14.2857 5.94696C14.3333 6.00946 14.3571 6.0794 14.3571 6.15678Z" fill="#555555"/>
</svg>
